<?xml version="1.0" encoding="UTF-8"?>
<svg id="_레이어_2" data-name="레이어 2" xmlns="http://www.w3.org/2000/svg" viewBox="0 0 204.68 33.32">
  <defs>
    <style>
      .cls-1 {
        fill: #1a3d91;
      }

      .cls-2 {
        fill: #2a2b33;
      }
    </style>
  </defs>
  <g id="_레이어_1-2" data-name="레이어 1">
    <g>
      <path class="cls-2" d="M.33,2.78h5.18V0h8.9v2.78h11.43v5.06h-11.43v2.04h6.53l4.98,4.98v4.16h-8.9v-4.08h-3.92l-4.08,4.08H0v-5.06h5.51v-6.12H.33V2.78ZM2.57,20.65h35.79v5.06h-13.14v.29l1.75,1.75h11.39v5.06h-15.02l-2.9-2.86-2.86,2.86H2.57v-5.06h11.39l1.75-1.75v-.29H2.57v-5.06ZM28.44,1.71h9.1v6.16h5.59v5.06h-5.59v6.49h-9.1V1.71Z"/>
      <polygon class="cls-2" points="85.38 32.81 75.67 32.81 72.77 29.95 69.91 32.81 61.26 32.81 58.36 29.95 55.51 32.81 45.79 32.81 45.79 27.75 51.88 27.75 53.63 26 53.63 21.06 63.14 21.06 63.14 26 64.89 27.75 66.28 27.75 68.04 26 68.04 21.06 77.54 21.06 77.54 26 79.3 27.75 85.38 27.75 85.38 32.81"/>
      <path class="cls-2" d="M65.18,1.71h-15.55l-4.61,4.16v8.94l4.61,4.2h15.55l4.61-4.2V5.88l-4.61-4.16ZM60.69,13.96h-6.57v-7.35h6.57v7.35Z"/>
      <polygon class="cls-2" points="72.52 1.71 81.62 1.71 81.62 7.47 87.22 7.47 87.22 12.53 81.62 12.53 81.62 19.43 72.52 19.43 72.52 1.71"/>
      <path class="cls-2" d="M114.69,19.02h-20.2l-4.98-4.98V1.71h24.36v5.06h-15.26v7.02h16.08v5.22ZM121.56,32.81h-9.65l-2.9-2.86-2.86,2.86h-15.43v-5.06h11.79l1.75-1.75v-4.94h9.51v4.94l1.75,1.75h5.97l.05,5.06ZM116.6,1.71h9.1v5.76h5.59v5.06h-5.59v9.35h-9.1V1.71Z"/>
      <path class="cls-1" d="M133.18,9.55h15.67v-3.02h-15.67V1.71h19.79l4.98,4.98v.78h4.77V1.71h9.1v16.9h-9.1v-6.08h-4.77v5.67h-9.1v-3.67h-15.67v-4.98ZM171.82,19.83v12.98h-32.85l-4.16-4.16v-8.81h37.01ZM143.91,27.75h18.81v-2.86h-18.81v2.86Z"/>
      <rect class="cls-1" x="122.24" y="27.75" width="5.06" height="5.06"/>
      <path class="cls-1" d="M202.87,13.12c-2.33-4.04-6.68-6.77-11.68-6.77-7.45,0-13.49,6.04-13.49,13.49s6.04,13.49,13.49,13.49c5,0,9.35-2.73,11.68-6.77,1.14-1.98,1.8-4.27,1.8-6.72s-.66-4.74-1.8-6.72ZM195.78,17.21c-.91-1.59-2.59-2.67-4.54-2.67-2.9,0-5.26,2.37-5.26,5.3s2.35,5.3,5.26,5.3c1.95,0,3.63-1.08,4.54-2.67l3.06,1.77c-1.51,2.65-4.34,4.44-7.59,4.44-4.84,0-8.76-3.95-8.76-8.83s3.92-8.83,8.76-8.83c3.25,0,6.08,1.79,7.59,4.44l-3.06,1.77Z"/>
    </g>
    <circle class="cls-2" cx="176.82" cy="30.28" r="2.53"/>
  </g>
</svg>