<svg width="25" height="24" viewBox="0 0 25 24" fill="none" xmlns="http://www.w3.org/2000/svg">
<path d="M12.7451 9.81836V14.4656H19.3351C19.0457 15.9602 18.1773 17.2257 16.8749 18.0766L20.849 21.0984C23.1644 19.0039 24.5002 15.9275 24.5002 12.273C24.5002 11.4221 24.4223 10.6039 24.2775 9.81849L12.7451 9.81836Z" fill="#4285F4"/>
<path d="M5.88237 14.2842L4.98608 14.9566L1.81348 17.3783C3.82832 21.2946 7.95789 24.0001 12.7445 24.0001C16.0506 24.0001 18.8223 22.931 20.8484 21.0984L16.8743 18.0765C15.7834 18.7965 14.3919 19.2329 12.7445 19.2329C9.56085 19.2329 6.85591 17.1275 5.88738 14.2911L5.88237 14.2842Z" fill="#34A853"/>
<path d="M1.81345 6.62207C0.978616 8.23655 0.5 10.0584 0.5 12.0002C0.5 13.942 0.978616 15.7638 1.81345 17.3783C1.81345 17.3891 5.88775 14.2801 5.88775 14.2801C5.64285 13.5601 5.49809 12.7965 5.49809 12C5.49809 11.2036 5.64285 10.44 5.88775 9.72L1.81345 6.62207Z" fill="#FBBC05"/>
<path d="M12.7448 4.77817C14.5481 4.77817 16.1511 5.38906 17.4312 6.56726L20.9377 3.13094C18.8115 1.18916 16.0509 0 12.7448 0C7.95815 0 3.82832 2.69454 1.81348 6.62181L5.88764 9.71999C6.85605 6.88361 9.5611 4.77817 12.7448 4.77817Z" fill="#EA4335"/>
</svg>
