<?xml version="1.0" encoding="UTF-8"?>
<svg id="_레이어_2" data-name="레이어 2" xmlns="http://www.w3.org/2000/svg" viewBox="0 0 32 32">
  <defs>
    <style>
      .cls-1 {
        fill: #fff;
      }

      .cls-2 {
        fill: #1a3d91;
      }

      .cls-3 {
        fill: #2a2b33;
      }
    </style>
  </defs>
  <g id="_레이어_2-2" data-name=" 레이어 2">
    <g>
      <rect class="cls-1" width="32" height="32"/>
      <g>
        <path class="cls-2" d="M0,0v32h32V0H0ZM27.61,23c-2.33,4.04-6.68,6.77-11.68,6.77-7.45,0-13.49-6.04-13.49-13.49S8.48,2.79,15.93,2.79c5,0,9.35,2.73,11.68,6.77,1.14,1.98,1.8,4.27,1.8,6.72s-.66,4.74-1.8,6.72Z"/>
        <circle class="cls-3" cx="3.53" cy="28.57" r="2.53"/>
        <path class="cls-2" d="M23.58,11.9c-1.51-2.65-4.34-4.44-7.59-4.44-4.84,0-8.76,3.95-8.76,8.83s3.92,8.83,8.76,8.83c3.25,0,6.08-1.79,7.59-4.44l-3.06-1.77c-.91,1.59-2.59,2.67-4.54,2.67-2.91,0-5.26-2.37-5.26-5.3s2.36-5.3,5.26-5.3c1.95,0,3.63,1.08,4.54,2.67v.02l3.06-1.77Z"/>
      </g>
    </g>
  </g>
</svg>